<?xml version="1.0" encoding="utf-8"?>
<!-- Generator: Adobe Illustrator 25.2.0, SVG Export Plug-In . SVG Version: 6.00 Build 0)  -->
<svg version="1.1" id="Layer_1" xmlns="http://www.w3.org/2000/svg" xmlns:xlink="http://www.w3.org/1999/xlink" x="0px" y="0px"
	 viewBox="0 0 3676.6 1574.8" style="enable-background:new 0 0 3676.6 1574.8;" xml:space="preserve">
<style type="text/css">
	.st0{fill:#E6332A;}
	.st1{fill:#29235C;}
</style>
<rect x="1769.2" y="100" class="st0" width="203" height="262.2"/>
<polygon class="st1" points="2270.6,87.2 2120.2,87.2 2120.2,754.6 1972.2,754.6 1972.2,511.1 1769.2,511.1 1769.2,754.6 
	1617.8,754.6 1617.8,87.2 1461.4,87.2 1461.4,754.6 1461.2,754.6 1461.2,910.2 2272,910.2 2272,754.6 2270.6,754.6 "/>
<path class="st1" d="M385.8,1475H179.4v-364.5h206.4v50.4H239.2v99h137.4v50.1H239.2v114.4h146.6V1475z"/>
<path class="st1" d="M617.5,1475v-364.5h59.8v313.6h154.8v50.9L617.5,1475z"/>
<path class="st1" d="M1470.1,1475H1410v-313.6h-106.7v-50.9h273.2v50.9h-106.5V1475z"/>
<path class="st1" d="M1991.7,1475h-206.4v-364.5h206.4v50.4h-146.6v99h137.4v50.1h-137.4v114.4h146.6V1475z"/>
<path class="st0" d="M2510.8,1475H2451v-164.5h-167.8V1475h-59.8v-364.5h59.8v149.1H2451v-149.1h59.8V1475z"/>
<path class="st0" d="M3046.4,1110.5v235.8c0,25.4-5.4,48.2-16.1,68.3c-10.7,20.1-26.9,36-48.5,47.7c-21.6,11.7-48.8,17.6-81.5,17.6
	c-46.7,0-82.2-12.3-106.7-36.8c-24.5-24.5-36.7-57.1-36.6-97.9v-234.8h60.1v229.6c0,30.4,7.1,52.9,21.4,67.3
	c14.3,14.5,35.6,21.7,64.1,21.7c19.4,0,35.4-3.4,47.7-10.3c12.3-6.8,22-17.5,27.5-30.4c6-13.4,9-29.5,9-48.5v-229.4H3046.4z"/>
<path class="st0" d="M3292.6,1110.5H3401c47,0,82.5,6.8,106.4,20.4c23.9,13.6,35.9,37.2,35.9,70.8c0,14-2.5,26.5-7.4,37.6
	c-4.7,10.8-12,20.3-21.3,27.5c-9.3,7.2-20.8,12.1-34.4,14.6v2.5c13.3,2.2,26,6.7,37.8,13.2c11.1,6.4,20.2,15.8,26.2,27.2
	c6.4,11.8,9.6,27.1,9.6,45.9c0,22.3-5.3,41.2-15.8,56.8c-10.6,15.6-25.6,27.5-45.1,35.6c-19.5,8.1-42.7,12.2-69.4,12.2h-130.9
	V1110.5z M3352.4,1260.8h57.3c27.1,0,45.8-4.4,56.2-13.2c10.4-8.8,15.6-21.6,15.6-38.4c0-17.5-6.2-30-18.6-37.5s-32-11.3-58.7-11.3
	h-51.9V1260.8z M3352.4,1309.4v115.4h63.1c27.8,0,47.3-5.4,58.6-16.2c11.3-10.8,17-25.4,17-43.9c0-11.3-2.5-21.1-7.5-29.4
	c-5-8.3-13.2-14.7-24.7-19.2c-11.5-4.5-26.9-6.7-46.4-6.7L3352.4,1309.4z"/>
<rect x="1041.9" y="1199" class="st1" width="58.8" height="276"/>
<rect x="1041.1" y="1102.2" class="st0" width="59.3" height="50.7"/>
</svg>
