<?xml version="1.0" encoding="utf-8"?>
<!-- Generator: Adobe Illustrator 25.2.0, SVG Export Plug-In . SVG Version: 6.00 Build 0)  -->
<svg version="1.1" id="Layer_1" xmlns="http://www.w3.org/2000/svg" xmlns:xlink="http://www.w3.org/1999/xlink" x="0px" y="0px"
	 viewBox="0 0 4320 1887.3" style="enable-background:new 0 0 4320 1887.3;" xml:space="preserve">
<style type="text/css">
	.st0{fill:#1D1D1B;}
</style>
<rect x="2041.7" y="114.6" class="st0" width="237.8" height="307.2"/>
<polygon class="st0" points="2629.2,99.6 2453,99.6 2453,881.7 2279.5,881.7 2279.5,596.4 2041.7,596.4 2041.7,881.7 1864.3,881.7 
	1864.3,99.6 1681,99.6 1681,881.7 1680.8,881.7 1680.8,1064 2630.9,1064 2630.9,881.7 2629.2,881.7 "/>
<path class="st0" d="M420.6,1725.8H178.7v-427.1h241.9v59H248.8v116h161v58.7h-161v134.1h171.8V1725.8z"/>
<path class="st0" d="M692.1,1725.8v-427.1h70.1v367.5h181.4v59.6L692.1,1725.8z"/>
<path class="st0" d="M1691.1,1725.8h-70.4v-367.5h-125v-59.6h320.2v59.6h-124.8V1725.8z"/>
<path class="st0" d="M2302.4,1725.8h-241.9v-427.1h241.9v59h-171.8v116h161v58.7h-161v134.1h171.8L2302.4,1725.8z"/>
<path class="st0" d="M2910.7,1725.8h-70.1V1533H2644v192.8h-70.1v-427.1h70.1v174.7h196.6v-174.7h70.1L2910.7,1725.8z"/>
<path class="st0" d="M3538.3,1298.7v276.4c0,29.8-6.3,56.5-18.8,80s-31.5,42.2-56.8,55.9c-25.3,13.7-57.2,20.6-95.5,20.6
	c-54.7,0-96.4-14.4-125-43.1c-28.6-28.7-42.9-66.9-42.9-114.7v-275.1h70.4v269.1c0,35.6,8.4,61.9,25.1,78.9
	c16.8,16.9,41.8,25.4,75.1,25.4c22.8,0,41.4-4,55.9-12.1c14.5-8.1,25.3-20,32.3-35.6c7-15.7,10.5-34.6,10.5-56.8v-268.8H3538.3z"/>
<path class="st0" d="M3826.8,1298.7h127.1c55.1,0,96.7,8,124.7,24s42.1,43.7,42.1,83c0,16.4-2.9,31.1-8.6,44.1
	c-5.5,12.7-14.1,23.8-25,32.3c-10.9,8.5-24.3,14.2-40.3,17.1v2.9c16.6,2.9,31.3,8.1,44.2,15.5c13,7.5,23.7,18.5,30.7,31.8
	c7.5,13.8,11.2,31.8,11.2,53.8c0,26.1-6.2,48.3-18.5,66.6c-12.4,18.3-30,32.2-52.9,41.8c-22.9,9.6-50,14.3-81.4,14.3h-153.3V1298.7z
	 M3896.9,1474.9h67.2c31.7,0,53.7-5.2,65.9-15.5s18.3-25.3,18.3-45c0-20.5-7.3-35.1-21.8-44s-37.4-13.3-68.8-13.3h-60.8V1474.9z
	 M3896.9,1531.9v135.2h73.9c32.5,0,55.4-6.3,68.6-19c13.2-12.7,19.9-29.8,19.9-51.4c0-13.2-2.9-24.7-8.8-34.5
	c-5.8-9.7-15.5-17.2-28.9-22.5c-13.4-5.3-31.6-7.9-54.3-7.9L3896.9,1531.9z"/>
<rect x="1189.4" y="1402.4" class="st0" width="68.9" height="323.4"/>
<rect x="1188.6" y="1289" class="st0" width="69.5" height="59.4"/>
</svg>
