<?xml version="1.0" encoding="utf-8"?>
<!-- Generator: Adobe Illustrator 25.2.0, SVG Export Plug-In . SVG Version: 6.00 Build 0)  -->
<svg version="1.1" id="Layer_1" xmlns="http://www.w3.org/2000/svg" xmlns:xlink="http://www.w3.org/1999/xlink" x="0px" y="0px"
	 viewBox="0 0 1480.9 686.3" style="enable-background:new 0 0 1480.9 686.3;" xml:space="preserve">
<style type="text/css">
	.st0{fill:#E5332A;}
	.st1{fill:#FFFFFF;}
</style>
<rect x="699.3" y="51.4" class="st0" width="85.7" height="110.7"/>
<polygon class="st1" points="911.1,46 847.5,46 847.5,327.8 785,327.8 785,225 699.3,225 699.3,327.8 635.4,327.8 635.4,46 
	569.3,46 569.3,327.8 569.2,327.8 569.2,393.6 911.6,393.6 911.6,327.8 911.1,327.8 "/>
<path class="st1" d="M115,632.1H27.8V478.2H115v21.3H53.1v41.8h58v21.2h-58v48.3H115V632.1z"/>
<path class="st1" d="M212.8,632.1V478.2h25.3v132.5h65.4v21.5H212.8z"/>
<path class="st1" d="M572.9,632.1h-25.4V499.6h-45.1v-21.5h115.4v21.5h-45L572.9,632.1z"/>
<path class="st1" d="M793.3,632.1h-87.2V478.2h87.2v21.3h-61.9v41.8h58v21.2h-58v48.3h61.9V632.1z"/>
<path class="st0" d="M1012.5,632.1h-25.3v-69.5h-70.8v69.5h-25.3V478.2h25.3v63h70.9v-63h25.3L1012.5,632.1z"/>
<path class="st0" d="M1238.7,478.2v99.6c0.2,10-2.2,19.9-6.8,28.9c-4.7,8.6-11.8,15.7-20.5,20.2c-9.1,5-20.6,7.4-34.4,7.4
	c-19.7,0-34.7-5.2-45.1-15.5c-10.3-10.4-15.5-24.1-15.5-41.3v-99.2h25.4v97c0,12.8,3,22.3,9.1,28.4s15.1,9.2,27.1,9.2
	c8.2,0,14.9-1.5,20.2-4.4c5.2-2.9,9.3-7.4,11.6-12.9c2.5-5.6,3.8-12.5,3.8-20.5v-96.9L1238.7,478.2z"/>
<path class="st0" d="M1342.7,478.2h45.8c19.9,0,34.9,2.9,45,8.6c10.1,5.8,15.2,15.7,15.2,29.9c0.1,5.5-1,10.9-3.1,15.9
	c-2,4.6-5.1,8.6-9,11.6c-4.3,3.2-9.3,5.3-14.5,6.2v1.1c5.6,0.9,11,2.8,16,5.6c4.7,2.7,8.5,6.7,11.1,11.5c2.7,5,4,11.4,4,19.4
	c0,9.4-2.2,17.4-6.7,24s-10.8,11.6-19.1,15.1c-8.2,3.4-18,5.2-29.3,5.2h-55.3L1342.7,478.2z M1368,541.7h24.2
	c11.4,0,19.4-1.9,23.7-5.6c4.4-3.7,6.6-9.1,6.6-16.2c0-7.4-2.6-12.7-7.8-15.9c-5.2-3.2-13.5-4.8-24.8-4.8H1368V541.7z M1368,562.2
	v48.8h26.6c11.7,0,20-2.3,24.8-6.9c4.8-4.6,7.2-10.7,7.2-18.5c0.1-4.4-1-8.6-3.2-12.4c-2.1-3.5-5.6-6.2-10.4-8.1
	c-4.8-1.9-11.4-2.8-19.6-2.8L1368,562.2z"/>
<rect x="392.1" y="515.5" class="st1" width="24.8" height="116.6"/>
<rect x="391.8" y="474.6" class="st0" width="25.1" height="21.4"/>
</svg>
