<?xml version="1.0" encoding="utf-8"?>
<!-- Generator: Adobe Illustrator 25.2.0, SVG Export Plug-In . SVG Version: 6.00 Build 0)  -->
<svg version="1.1" id="Layer_1" xmlns="http://www.w3.org/2000/svg" xmlns:xlink="http://www.w3.org/1999/xlink" x="0px" y="0px"
	 viewBox="0 0 3355.9 627.1" style="enable-background:new 0 0 3355.9 627.1;" xml:space="preserve">
<style type="text/css">
	.st0{fill:#29235C;}
	.st1{fill:#E6332A;}
</style>
<path class="st0" d="M317.7,486.4H124.7V145.5h193.1v47.1H180.6v92.6h128.5V332H180.6v107h137.1V486.4z"/>
<path class="st0" d="M534.4,486.4V145.5h56v293.3h144.8v47.6L534.4,486.4z"/>
<path class="st0" d="M1331.7,486.4h-56.2V193.1h-99.8v-47.6h255.5v47.6h-99.6V486.4z"/>
<path class="st0" d="M1819.6,486.4h-193.1V145.5h193.1v47.1h-137.1v92.6H1811V332h-128.5v107h137.1L1819.6,486.4z"/>
<path class="st1" d="M2305.2,486.4h-56V332.5h-156.9v153.9h-56V145.5h56v139.4h156.9V145.5h56L2305.2,486.4z"/>
<path class="st1" d="M2806.1,145.5v220.6c0,23.8-5,45.1-15,63.9c-10,18.8-25.1,33.7-45.4,44.7c-20.2,11-45.6,16.4-76.2,16.4
	c-43.7,0-76.9-11.5-99.8-34.4s-34.3-53.4-34.3-91.5V145.5h56.2v214.7c0,28.5,6.7,49.5,20.1,63c13.4,13.5,33.3,20.3,59.9,20.3
	c18.2,0,33.1-3.2,44.6-9.7c11.5-6.4,20.6-16.4,25.8-28.4c5.6-12.5,8.4-27.6,8.4-45.4V145.5H2806.1z"/>
<path class="st1" d="M3036.3,145.5h101.4c44,0,77.2,6.4,99.6,19.1c22.4,12.7,33.6,34.8,33.6,66.2c0,13.1-2.3,24.8-6.9,35.2
	c-4.4,10.1-11.2,19-19.9,25.8c-8.7,6.8-19.4,11.3-32.2,13.6v2.3c12.4,2,24.4,6.2,35.3,12.4c10.4,6,18.9,14.8,24.5,25.4
	c6,11,9,25.3,9,42.9c0,20.8-4.9,38.5-14.8,53.2c-9.9,14.6-23.9,25.7-42.2,33.3c-18.3,7.6-39.9,11.4-64.9,11.4h-122.4V145.5z
	 M3092.3,286.1h53.6c25.3,0,42.9-4.1,52.6-12.4c9.7-8.2,14.6-20.2,14.6-35.9c0-16.3-5.8-28-17.4-35.1c-11.6-7.1-29.9-10.6-54.9-10.6
	h-48.5V286.1z M3092.3,331.6v107.9h59c26,0,44.2-5.1,54.8-15.2c10.6-10.1,15.9-23.8,15.9-41c0-10.6-2.3-19.7-7-27.5
	c-4.7-7.8-12.4-13.8-23.1-17.9c-10.7-4.2-25.2-6.3-43.4-6.3L3092.3,331.6z"/>
<rect x="931.3" y="228.3" class="st0" width="55" height="258.1"/>
<rect x="930.6" y="137.7" class="st1" width="55.5" height="47.4"/>
</svg>
